# xmcd CD database file
#
# Track frame offsets:
#	150
#	17478
#	30233
#	47112
#	64338
#	78856
#	94289
#	112285
#	134757
#	150942
#	165435
#	184248
#	200567
#	234630
#	252275
#	275564
#	288965
#	310622
#	327830
#
# Disc length: 4594 seconds
#
# Revision: 0
# Processed by: cddbd v1.5.1PL2 Copyright (c) Steve Scherf et al.
# Submitted via: CDex 1.70beta2
#
DISCID=0611f013
DTITLE=Various Artist - Dance Max 2005-01 CD1
DYEAR=2005
DGENRE=New Age
TTITLE0=Scooter - One(Always Hardcore)Radio Edit
TTITLE1=Eryc Prydz - Call On Me(Radio Edit)
TTITLE2=Mario Lopez - Angel Eyes(Radio Cut)
TTITLE3=Staccato - Changes(Single Edit)
TTITLE4=Michael Gray - The Weekend(Radio Edit)
TTITLE5=Master Blaster - Dial My Number(Radio Mix)
TTITLE6=Deep Dish - Flashdance(Radio version)
TTITLE7=Starsplash - Cold As Ice(Album Version)
TTITLE8=Sven-R-G Feat. Bass-T - On A Party Trip
TTITLE9=Tiesto Feat. Kirsty Hawkshaw - Just Be(Antillas Radio Cut)
TTITLE10=Terranova - The Real Thing(Album Edit)
TTITLE11=ATB - Here With Me(Short Edit)
TTITLE12=Cappella - U Got To Let The Music 2004(Dj Shog Remix)
TTITLE13=Lichtenfels - B-Boys Fly Girls(Radio Edit)
TTITLE14=Tonka - 84(My Beginning)Album Edit
TTITLE15=Body and Soul - Boys and Girls
TTITLE16=Ian Pooley - Samo Iluzija(Album Edit)
TTITLE17=Zoo Brazil Feat. Emma - 1987(Radio Edit)
TTITLE18=Lacuna - Celebrate the Summer
EXTD=YEAR: 2005
EXTT0=
EXTT1=
EXTT2=
EXTT3=
EXTT4=
EXTT5=
EXTT6=
EXTT7=
EXTT8=
EXTT9=
EXTT10=
EXTT11=
EXTT12=
EXTT13=
EXTT14=
EXTT15=
EXTT16=
EXTT17=
EXTT18=
PLAYORDER=
